<svg xmlns="http://www.w3.org/2000/svg" width="14" height="14" viewBox="0 0 14 14" fill="none">
    <rect x="0.5" y="0.5" width="13" height="13" rx="6.5" fill="#3D3D5D"/>
    <path d="M7.00042 10.8269C6.94602 10.8269 6.88743 10.8208 6.82464 10.8086C6.76185 10.7965 6.70326 10.773 6.64886 10.7383L3.83115 9.18275C3.71773 9.12372 3.62702 9.0375 3.55902 8.92408C3.49103 8.81065 3.45703 8.68643 3.45703 8.5514V5.4585C3.45703 5.32347 3.49065 5.20034 3.55789 5.0891C3.62514 4.97786 3.71585 4.88921 3.83003 4.82315L6.64773 3.25631C6.70288 3.22522 6.76185 3.2036 6.82464 3.19145C6.88743 3.1793 6.9479 3.17322 7.00607 3.17322C7.06423 3.17322 7.1247 3.1793 7.18749 3.19145C7.25028 3.2036 7.30923 3.22539 7.36436 3.25683L10.181 4.83989C10.2944 4.89892 10.3832 4.98489 10.4475 5.0978C10.5117 5.21072 10.5438 5.33568 10.5438 5.47269V8.55235C10.5438 8.68674 10.5117 8.81065 10.4475 8.92408C10.3832 9.0375 10.2944 9.12372 10.181 9.18275L7.36327 10.7383C7.30887 10.773 7.2509 10.7965 7.18936 10.8086C7.12783 10.8208 7.06485 10.8269 7.00042 10.8269ZM5.84851 6.0274C6.00057 5.8543 6.17588 5.72205 6.37445 5.63065C6.57301 5.53924 6.78277 5.49354 7.00371 5.49354C7.22754 5.49354 7.43722 5.53924 7.63275 5.63065C7.82827 5.72205 8.00146 5.8543 8.15233 6.0274L9.63412 5.21141L7.06987 3.78865C7.04672 3.77708 7.02357 3.7713 7.00042 3.7713C6.97727 3.7713 6.95413 3.77708 6.93098 3.78865L4.36673 5.21141L5.84851 6.0274ZM6.70703 10.1081V8.49873C6.35344 8.42581 6.06192 8.25145 5.83247 7.97563C5.60301 7.69981 5.48828 7.37645 5.48828 7.00553C5.48828 6.92172 5.49421 6.84494 5.50608 6.77521C5.51794 6.70547 5.53805 6.62951 5.56641 6.54734L4.04381 5.69751V8.54672C4.04381 8.57277 4.0496 8.59591 4.06118 8.61617C4.07275 8.63643 4.09012 8.65379 4.11327 8.66826L6.70703 10.1081ZM7.00602 7.93104C7.25975 7.93104 7.47647 7.84495 7.65619 7.67279C7.83592 7.50062 7.92578 7.27825 7.92578 7.00568C7.92578 6.73311 7.83592 6.51074 7.65619 6.33857C7.47647 6.1664 7.25975 6.08032 7.00602 6.08032C6.75229 6.08032 6.53369 6.1664 6.35024 6.33857C6.16679 6.51074 6.07506 6.73311 6.07506 7.00568C6.07506 7.27825 6.16679 7.50062 6.35024 7.67279C6.53369 7.84495 6.75229 7.93104 7.00602 7.93104ZM7.29381 10.1081L9.88757 8.66826C9.91073 8.65379 9.92809 8.63643 9.93966 8.61617C9.95124 8.59591 9.95703 8.57277 9.95703 8.54672V5.69751L8.43444 6.54734C8.46279 6.63704 8.4829 6.71575 8.49477 6.78348C8.50663 6.85121 8.51256 6.92528 8.51256 7.00568C8.51256 7.37655 8.39972 7.69989 8.17402 7.97568C7.94833 8.25146 7.65493 8.42581 7.29381 8.49873V10.1081Z" fill="#87879B"/>
</svg>